<?xml version="1.0" encoding="UTF-8" standalone="no"?>
<svg
   viewBox="0 0 400 50"
   version="1.1"
   id="svg32"
   sodipodi:docname="logo.svg"
   inkscape:version="1.1 (c68e22c387, 2021-05-23)"
   xmlns:inkscape="http://www.inkscape.org/namespaces/inkscape"
   xmlns:sodipodi="http://sodipodi.sourceforge.net/DTD/sodipodi-0.dtd"
   xmlns="http://www.w3.org/2000/svg"
   xmlns:svg="http://www.w3.org/2000/svg">
  <defs
     id="defs36" />
  <sodipodi:namedview
     id="namedview34"
     pagecolor="#ffffff"
     bordercolor="#666666"
     borderopacity="1.0"
     inkscape:pageshadow="2"
     inkscape:pageopacity="0.0"
     inkscape:pagecheckerboard="0"
     showgrid="false"
     inkscape:zoom="3.1725"
     inkscape:cx="200"
     inkscape:cy="24.901497"
     inkscape:window-width="1920"
     inkscape:window-height="1011"
     inkscape:window-x="0"
     inkscape:window-y="32"
     inkscape:window-maximized="1"
     inkscape:current-layer="svg32" />
  <g
     class="letter_s"
     id="g4"
     style="fill:#ffffff">
    <path
       d="M37.5 30.5H10.9v-6.6h34.3c-.9-2.8-3.8-5.4-8.9-5.4H11.4c-5.7 0-9 2.1-9 6.7v4.9c0 4 3.4 6.3 8.4 6.3h26.9v7H1.5c.9 3.8 3.8 5.8 9 5.8h27.1c5.7 0 8.5-2.2 8.5-6.9v-4.9c0-4.3-3.3-6.6-8.6-6.9z"
       id="path2"
       style="fill:#ffffff" />
  </g>
  <g
     class="letter_p"
     id="g8"
     style="fill:#ffffff">
    <path
       d="M91.8 18.6H59v30.7h9.3V37.5h24.2c6.7 0 10.4-2.3 10.4-7.7v-3.4c-.1-5-4.3-7.8-11.1-7.8zm3 9.8c0 2.2-.4 3.4-4 3.4H68.3l.1-8h22c4 0 4.5 1.2 4.5 3.3v1.3z"
       id="path6"
       style="fill:#ffffff" />
  </g>
  <g
     class="letter_a"
     id="g12"
     style="fill:#ffffff">
    <polygon
       points="129.9,17.3 124.3,24.2 133.8,37.3 114,37.3 109.1,42.5 137.7,42.5 142.6,49.3 153.6,49.3"
       id="polygon10"
       style="fill:#ffffff" />
  </g>
  <g
     class="letter_c"
     id="g16"
     style="fill:#ffffff">
    <path
       d="M171.4 23.9h34.8c-.9-3.6-4.4-5.4-9.4-5.4h-26c-4.5 0-8.8 1.8-8.8 6.7v17.2c0 4.9 4.3 6.7 8.8 6.7h26.3c6 0 8.1-1.7 9.1-5.8h-34.8V23.9z"
       id="path14"
       style="fill:#ffffff" />
  </g>
  <g
     class="letter_e"
     id="g22"
     style="fill:#ffffff">
    <polygon
       points="228.3,43.5 228.3,34.1 247,34.1 247,28.9 218.9,28.9 218.9,49.3 260.4,49.3 260.4,43.5"
       id="polygon18"
       style="fill:#ffffff" />
    <rect
       width="41.9"
       height="5.4"
       x="219.9"
       y="18.6"
       id="rect20"
       style="fill:#ffffff" />
  </g>
  <g
     class="letter_x"
     id="g26"
     style="fill:#ffffff">
    <path
       d="M287.6 18.6H273l17.2 12.6c2.5-1.7 5.4-3.5 8-5l-10.6-7.6zm21.2 15.7c-2.5 1.7-5 3.6-7.4 5.4l13 9.5h14.7l-20.3-14.9z"
       id="path24"
       style="fill:#ffffff" />
  </g>
  <g
     class="letter_swoosh"
     id="g30"
     style="fill:#ffffff">
    <path
       d="M399 .7c-80 4.6-117 38.8-125.3 46.9l-1.7 1.6h14.8C326.8 9.1 384.3 2 399 .7z"
       id="path28"
       style="fill:#ffffff" />
  </g>
</svg>
